<?xml version="1.0" encoding="iso-8859-1"?>
<!-- Generator: Adobe Illustrator 19.1.0, SVG Export Plug-In . SVG Version: 6.00 Build 0)  -->
<svg version="1.1" id="Capa_1" xmlns="http://www.w3.org/2000/svg" xmlns:xlink="http://www.w3.org/1999/xlink" x="0px" y="0px"
	 viewBox="0 0 290.191 290.191" style="enable-background:new 0 0 290.191 290.191;" xml:space="preserve">
<g>
	<path d="M288.38,25.277c2.414-2.414,2.414-7.244,0-9.658l-13.28-13.28c-2.414-2.414-7.243-2.414-9.658,0l-85.714,85.714
		c-3.018,3.018-6.64,3.622-10.262,2.414c-4.225-1.811-7.847-4.225-8.451-4.225c-2.414-1.811-5.433-1.207-7.847,0.604L4.074,235.941
		c-5.433,5.433-5.433,13.28,0,18.712l31.388,31.388c2.414,2.414,6.036,3.622,9.658,3.622s6.64-1.207,9.658-3.622l149.095-149.095
		c2.414-2.414,2.414-5.433,0.604-7.847c0,0-2.414-3.018-4.225-6.64c-1.811-3.622-0.604-8.451,2.414-11.469L288.38,25.277z
		 M193.612,102.54c-6.64,6.64-8.451,16.298-4.829,24.749c0.604,1.811,1.811,3.018,2.414,4.829L45.121,278.194
		c-0.604,0.604-1.207,0.604-1.811,0l-31.388-31.388c-0.604-0.604-0.604-1.207,0-1.811L157.998,98.918
		c1.811,1.207,4.225,1.811,6.64,3.018c7.847,3.018,16.901,0.604,22.938-5.433l82.093-82.093l5.433,5.433L193.612,102.54z"/>
</g>
<g>
</g>
<g>
</g>
<g>
</g>
<g>
</g>
<g>
</g>
<g>
</g>
<g>
</g>
<g>
</g>
<g>
</g>
<g>
</g>
<g>
</g>
<g>
</g>
<g>
</g>
<g>
</g>
<g>
</g>
</svg>
