<?xml version="1.0" encoding="iso-8859-1"?>
<!-- Generator: Adobe Illustrator 19.0.0, SVG Export Plug-In . SVG Version: 6.00 Build 0)  -->
<svg version="1.1" id="Capa_1" xmlns="http://www.w3.org/2000/svg" xmlns:xlink="http://www.w3.org/1999/xlink" x="0px" y="0px"
	 viewBox="0 0 512 512" style="enable-background:new 0 0 512 512;" xml:space="preserve">
<g>
	<g>
		<path d="M404.772,59.52c-7.147,0-13.943,1.515-20.101,4.223V50.1c0-27.625-22.475-50.1-50.1-50.1
			c-13.659,0-26.053,5.501-35.1,14.395C290.426,5.501,278.032,0,264.373,0c-27.625,0-50.1,22.475-50.1,50.1v6.34
			c-6.157-2.708-12.953-4.223-20.1-4.223c-27.625,0-50.1,22.475-50.1,50.1v132.367l-0.32-0.341
			c-9.159-9.756-21.57-15.361-34.945-15.783c-13.409-0.429-26.115,4.39-35.87,13.55c-9.757,9.16-15.362,21.57-15.784,34.946
			c-0.421,13.376,4.391,26.115,13.513,35.831l75.009,80.483c4.71,21.072,19.515,38.372,39.065,46.526V512h235.031v-84.745
			c20.859-11.098,35.1-33.056,35.1-58.286V109.62C454.872,81.994,432.397,59.52,404.772,59.52z M144.074,337.647l-51.498-55.256
			c-3.675-3.913-5.606-9.025-5.437-14.391c0.169-5.366,2.418-10.345,6.333-14.02c3.915-3.675,9.039-5.605,14.39-5.436
			c5.366,0.169,10.346,2.418,14.021,6.332l22.191,23.636V337.647z M389.772,482H214.741v-47.047h174.146
			c0.297,0,0.589-0.018,0.885-0.022V482z M424.876,368.969h-0.004c0,19.842-16.143,35.984-35.984,35.984h-178.83
			c-19.842,0-35.983-16.142-35.983-35.984V102.316c0-11.083,9.017-20.1,20.1-20.1s20.1,9.017,20.1,20.1V221.31h30V50.1
			c0-11.083,9.017-20.1,20.1-20.1c11.083,0,20.1,9.017,20.1,20.1v171.211h30V50.1c0-11.083,9.017-20.1,20.1-20.1
			s20.1,9.017,20.1,20.1v171.211h30V109.62c0-11.083,9.018-20.1,20.101-20.1s20.1,9.017,20.1,20.1V368.969z"/>
	</g>
</g>
<g>
	<g>
		<path d="M208.139,282.668v87.412h182.667v-87.412H208.139z M360.806,340.08H238.139v-27.412h122.667V340.08z"/>
	</g>
</g>
<g>
</g>
<g>
</g>
<g>
</g>
<g>
</g>
<g>
</g>
<g>
</g>
<g>
</g>
<g>
</g>
<g>
</g>
<g>
</g>
<g>
</g>
<g>
</g>
<g>
</g>
<g>
</g>
<g>
</g>
</svg>
